<?xml version="1.0" encoding="UTF-8"?><svg id="Layer_1" xmlns="http://www.w3.org/2000/svg" xmlns:xlink="http://www.w3.org/1999/xlink" viewBox="0 0 500 500"><defs><style>.cls-1{fill:#3c3e41;}.cls-2{fill:url(#radial-gradient);}.cls-3{fill:#e7f3fc;}.cls-4{fill:#bf7958;}.cls-5{fill:#4c4eaa;}.cls-6{fill:#eea160;}.cls-7{fill:#a8603f;}.cls-8{fill:#fff;}.cls-9{fill:#454a51;}.cls-10{fill:#d78b49;}.cls-11{fill:#955435;}.cls-12{fill:#676ac6;}.cls-13{fill:#bfd4e5;}</style><radialGradient id="radial-gradient" cx="-406.56" cy="711.14" fx="-406.56" fy="711.14" r="72.02" gradientTransform="translate(867.03 968.1) scale(1.51 -1)" gradientUnits="userSpaceOnUse"><stop offset="0" stop-color="#000" stop-opacity=".3"/><stop offset="1" stop-color="#000" stop-opacity="0"/></radialGradient></defs><g id="leg_0_Layer0_0_FILL"><path class="cls-5" d="M322.57,452.29l.8-26.5h-63.08l-.8,26.5h63.08Z"/><path class="cls-8" d="M352.78,484.1l-30.48-31.8h-62.81l-1.33,31.8h94.62Z"/><path class="cls-6" d="M352.25,500l.53-15.9h-94.62l-.8,15.9h94.88Z"/><path class="cls-12" d="M325.75,377.02c0-8.48-3.36-15.73-10.07-21.73-6.54-6.01-14.58-9.01-24.12-9.01s-17.4,3-24.12,9.01c-6.71,6.01-10.07,13.25-10.07,21.73l2.92,48.77h63.08l2.39-48.77Z"/></g><g id="leg_0_Layer0_0_FILL-2"><path class="cls-5" d="M181.57,452.29l-.8-26.5h63.08l.8,26.5h-63.08Z"/><path class="cls-8" d="M151.35,484.1l30.48-31.8h62.81l1.33,31.8h-94.62Z"/><path class="cls-6" d="M151.88,500l-.53-15.9h94.62l.8,15.9h-94.88Z"/><path class="cls-12" d="M178.39,377.02c0-8.48,3.36-15.73,10.07-21.73,6.54-6.01,14.58-9.01,24.12-9.01s17.4,3,24.12,9.01c6.71,6.01,10.07,13.25,10.07,21.73l-2.92,48.77h-63.08l-2.39-48.77Z"/></g><g id="arm_0_Layer0_0_FILL"><path class="cls-4" d="M369.14,358.44c-10.63-7.42-20.6-15.95-29.91-25.58,9.73-17.88,25-32.54,45.81-43.97,3.83,4.14,7.84,7.95,12.02,11.45,9.51,8.22,20.39,14.7,32.65,19.45,7.96,3.05,13.72,8.52,17.27,16.43,3.34,8.03,3.54,16.13.62,24.31-3.22,7.92-8.87,13.63-16.94,17.14-7.73,3.6-15.75,3.83-24.06.69-9.58-3.85-18.55-8.26-26.91-13.25-3.65-2.08-7.17-4.3-10.56-6.67Z"/><path class="cls-3" d="M307.58,268.69c2.41-8.32,7.4-14.66,14.98-19.03,7.7-4.16,15.6-4.97,23.7-2.43,8.36,2.24,14.67,7.04,18.92,14.4,5.66,10.3,12.27,19.39,19.86,27.27-20.81,11.44-36.08,26.09-45.81,43.97-10.9-11.88-20.55-25.35-28.96-40.41-3.86-7.44-4.76-15.36-2.69-23.77Z"/></g><g id="arm_0_Layer0_1_FILL"><path class="cls-13" d="M340.47,346.65l-15.62-15.44,56.1-55.76,15.43,15.11-55.91,56.08Z"/></g><g id="arm_0_Layer0_0_FILL-2"><path class="cls-4" d="M120.35,346.28c12.19-4.42,24.03-10.07,35.51-16.96-4.77-19.79-15.73-37.9-32.86-54.33-4.77,3-9.63,5.65-14.58,7.95-11.31,5.48-23.5,8.92-36.57,10.34-8.48.88-15.46,4.68-20.94,11.4-5.3,6.89-7.6,14.67-6.89,23.32,1.06,8.48,5.04,15.46,11.93,20.94,6.54,5.48,14.22,7.77,23.06,6.89,10.25-1.24,20.05-3.18,29.42-5.83,4.06-1.06,8.04-2.3,11.93-3.71Z"/><path class="cls-3" d="M203.04,275.51c-.18-8.66-3.36-16.08-9.54-22.26-6.36-6.01-13.78-8.83-22.26-8.48-8.66,0-15.99,3-22,9.01-8.13,8.48-16.87,15.55-26.24,21.2,17.14,16.43,28.09,34.54,32.86,54.33,13.6-8.66,26.41-19.17,38.43-31.54,5.65-6.18,8.57-13.6,8.75-22.26Z"/></g><g id="arm_0_Layer0_1_FILL-2"><path class="cls-13" d="M151.09,342.3l19.08-10.87-39.75-68.38-18.82,10.6,39.49,68.64Z"/></g><g id="body_0_Layer0_0_FILL"><path class="cls-13" d="M329.46,377.55v-26.24h-159.29v26.24h159.29Z"/><path class="cls-12" d="M321.51,405.12c4.95-6.71,7.6-15.9,7.95-27.56h-159.29c.35,11.66,3,20.85,7.95,27.56h143.39Z"/><path class="cls-3" d="M346.42,278.96c3.71-19.08-.88-28.27-13.78-27.56h-165.91c-12.9-.71-17.49,8.48-13.78,27.56l17.23,72.36h159.29l16.96-72.36Z"/></g><g id="body_0_Layer0_0_MEMBER_0_FILL"><path class="cls-7" d="M292.35,211.9c-11.13-9.01-24.47-13.52-40.02-13.52s-28.89,4.51-40.02,13.52c-10.95,9.54-16.43,20.94-16.43,34.19,0,.88.09,1.77.27,2.65.53,12.02,5.92,22.26,16.17,30.74,11.13,9.54,24.47,14.31,40.02,14.31s28.89-4.77,40.02-14.31c10.25-8.48,15.64-18.73,16.17-30.74.18-.88.27-1.77.27-2.65,0-13.25-5.48-24.65-16.43-34.19Z"/></g><g id="body_0_Layer0_0_MEMBER_1_FILL"><path class="cls-10" d="M235.37,352.37l-74.74,6.63c1.41,8.66,2.92,17.85,4.51,27.56l65.99-7.95c1.77-8.13,3.18-16.87,4.24-26.24Z"/><path class="cls-6" d="M235.37,352.37c1.24-12.37,1.68-25.71,1.33-40.02-23.85-15.02-42.76-37.81-56.72-68.38l-24.12-4.51c-7.24,13.08-5.65,52.92,4.77,119.53l74.74-6.63Z"/></g><g id="body_0_Layer0_0_MEMBER_2_FILL"><path class="cls-10" d="M341.39,359l-74.74-6.63c1.06,9.36,2.47,18.11,4.24,26.24l65.99,7.95c1.59-9.72,3.09-18.91,4.51-27.56Z"/><path class="cls-6" d="M265.32,312.35c-.35,14.31.09,27.65,1.33,40.02l74.74,6.63c10.42-66.61,12.02-106.46,4.77-119.53l-24.12,4.51c-13.96,30.57-32.86,53.36-56.72,68.38Z"/></g><g id="body_0_Layer0_0_MEMBER_3_FILL"><path class="cls-13" d="M182.89,246.09l-10.87,19.08,69.44,40.29,10.87-19.35-69.44-40.02M321.77,246.09l-69.44,40.02,10.87,19.35,69.44-40.29-10.87-19.08Z"/><path class="cls-3" d="M263.2,305.46l-10.87-19.35-10.87,19.35h21.73Z"/></g><g id="hand_0_Layer0_0_FILL"><path class="cls-7" d="M470.16,315.6l-4.55-2.17c-20.92-6.76-39.16-7.05-54.72-.88,32.83-19.67,52.7-18.7,59.62,2.91l-.35.14Z"/><path class="cls-4" d="M391.98,376.14c-4.34-1.99-5.53-5.35-3.56-10.09l22.48-53.52c15.57-6.17,33.81-5.88,54.72.88l4.55,2.17.35-.14c5.45,2.07,11.17,4.44,17.14,7.11l1.96.81c4.57,1.89,6.05,6.62,4.45,14.18-1.98,11.23-5.08,21.71-9.3,31.43-11.67,27.68-41.12,30.67-88.36,8.98l-4.41-1.83Z"/></g><g id="shadow_0_Layer0_0_FILL"><path class="cls-2" d="M329.7,206.34c-20.77-13.78-45.94-20.67-75.51-20.67s-55,6.89-76.31,20.67c-20.77,14.14-31.16,31.01-31.16,50.62s10.39,36.31,31.16,50.09c21.31,14.14,46.74,21.2,76.31,21.2s54.73-7.07,75.51-21.2c21.31-13.78,31.96-30.48,31.96-50.09s-10.65-36.49-31.96-50.62Z"/></g><g id="head_0_Layer0_0_FILL"><path class="cls-9" d="M350.11,38.36l-12.46-25.74C286.88,2.57,238.7-1.47,193.11.47c-25.51.57-38.31,11.16-38.42,31.79v9.07c4.8-12.07,16.83-18.31,36.09-18.72,45.57-1.77,93.74,2.36,144.51,12.41l14.82,3.34M402.67,68.01l1.56-6.49c4.78-19.54-3.38-32.6-24.49-39.16l-26.27,16.93,23.94,5.21c14.76,4.58,23.18,12.41,25.26,23.51Z"/><path class="cls-1" d="M377.41,44.5l-23.94-5.21-2.29,1.33-1.07-2.26-14.82-3.34c-50.77-10.04-98.94-14.18-144.51-12.41-19.26.41-31.29,6.65-36.09,18.72l-.13,103.52c.14,15.49,9.25,24.3,27.32,26.42l163.73,19.2c18.25,2.14,29.15-4.32,32.69-19.38l24.36-103.08c-2.08-11.1-10.5-18.93-25.26-23.51Z"/></g><g id="head_0_Layer0_1_FILL"><path class="cls-4" d="M139.04,140.64c-9.22,7.28-14.51,16.8-15.89,28.56s1.57,22.24,8.85,31.46c7.42,9.59,16.83,15.05,28.23,16.39s22.09-1.77,31.52-9.38c9.04-7.3,14.25-16.83,15.63-28.59s-1.48-22.23-8.59-31.43c-7.42-9.59-16.91-15.06-28.5-16.42s-21.83,1.8-31.26,9.41M145.51,190.23c-4.34-5.49-6.08-11.83-5.24-19.03s3.97-12.61,9.5-17.3c5.49-4.34,11.66-6.11,18.5-5.3,7.2.84,12.96,4.01,17.3,9.5,4.3,5.84,6.04,12.18,5.24,19.03-.84,7.2-4.01,12.96-9.5,17.3-5.51,4.51-11.86,6.35-19.06,5.5s-12.42-4.04-16.74-9.7M333.84,163.48c-9.22,7.28-14.51,16.8-15.89,28.56-1.38,11.76,1.57,22.24,8.85,31.46,7.42,9.59,16.83,15.05,28.23,16.39,11.58,1.36,22.09-1.77,31.52-9.38,9.04-7.3,14.25-16.83,15.63-28.59s-1.48-22.23-8.59-31.43c-7.42-9.59-16.91-15.06-28.5-16.42s-21.83,1.8-31.26,9.41M344.56,176.74c5.49-4.34,11.66-6.11,18.5-5.3s12.79,3.99,17.3,9.5c4.3,5.84,6.04,12.18,5.24,19.03-.84,7.2-4.01,12.96-9.5,17.3-5.69,4.49-12.04,6.33-19.06,5.5s-12.42-4.04-16.74-9.7c-4.51-5.51-6.35-11.86-5.5-19.06s4.06-12.6,9.76-17.27Z"/><path class="cls-7" d="M140.26,171.2c-.84,7.2.9,13.54,5.24,19.03,4.32,5.67,9.9,8.9,16.74,9.7,7.2.84,13.55-.99,19.06-5.5,5.49-4.34,8.66-10.1,9.5-17.3.8-6.84-.94-13.19-5.24-19.03-4.34-5.49-10.1-8.66-17.3-9.5s-13.01.97-18.5,5.3c-5.53,4.69-8.7,10.45-9.5,17.3M363.06,171.44c-6.84-.8-13.01.97-18.5,5.3-5.71,4.67-8.96,10.42-9.76,17.27-.84,7.2.99,13.55,5.5,19.06,4.32,5.67,9.9,8.9,16.74,9.7s13.37-1.01,19.06-5.5c5.49-4.34,8.66-10.1,9.5-17.3s-.94-13.19-5.24-19.03c-4.51-5.51-10.28-8.68-17.3-9.5Z"/></g><g id="head_0_Layer0_2_FILL"><path class="cls-4" d="M318.53,264.42c19.24-.23,31.14-9.16,35.7-26.77l30-135.25-220.33-25.83-2.78,169.39,157.41,18.46Z"/></g><g id="head_0_Layer0_3_FILL"><path class="cls-8" d="M198.73,164.18c-.72,6.14.59,11.63,3.94,16.47,3.66,5.23,8.64,8.22,14.96,8.96,5.97.7,11.25-1.08,15.84-5.35,4.55-3.91,7.19-8.94,7.91-15.08s-.68-11.64-4.2-16.5c-3.5-5.04-8.24-7.9-14.2-8.6-6.32-.74-11.85.92-16.6,4.99-4.38,3.93-6.92,8.97-7.64,15.12M211.8,166.51l.15-1.32c.61-3.66,2.21-6.68,4.8-9.04,2.79-2.52,5.93-3.57,9.44-3.16,3.69.43,6.59,2.2,8.72,5.29,1.97,2.9,2.83,6.2,2.57,9.91l-.15,1.32c-.59,3.49-2.18,6.42-4.77,8.78-2.79,2.52-6.02,3.56-9.71,3.13-3.51-.41-6.33-2.17-8.46-5.26-1.97-2.9-2.84-6.11-2.61-9.65M291.9,191.12c3.83,5.25,8.82,8.24,14.96,8.96s11.33-1.07,15.57-5.38c4.9-3.87,7.71-8.88,8.43-15.02.72-6.14-.86-11.66-4.73-16.57-3.15-4.99-7.8-7.85-13.94-8.57s-11.67.94-16.6,4.99c-4.38,3.93-6.92,8.97-7.64,15.12s.59,11.63,3.94,16.47M313.62,167.51c2.15,2.92,3.09,6.23,2.84,9.94l-.15,1.32c-.59,3.49-2.26,6.41-5.03,8.75-2.61,2.54-5.67,3.6-9.18,3.19-3.51-.41-6.5-2.19-8.98-5.32-1.8-2.88-2.58-6.08-2.34-9.61l.22-1.84c.57-3.31,2.06-6.16,4.47-8.55,3.14-2.48,6.46-3.51,9.97-3.1,3.51.41,6.24,2.15,8.19,5.23Z"/><path class="cls-1" d="M211.95,165.2l-.15,1.32c-.24,3.53.63,6.75,2.61,9.65,2.13,3.1,4.95,4.85,8.46,5.26,3.69.43,6.92-.61,9.71-3.13,2.59-2.36,4.18-5.29,4.77-8.78l.15-1.32c.26-3.71-.6-7.01-2.57-9.91-2.13-3.1-5.03-4.86-8.72-5.29-3.51-.41-6.66.64-9.44,3.16-2.59,2.36-4.19,5.38-4.8,9.04M316.46,177.45c.26-3.71-.69-7.02-2.84-9.94-1.95-3.08-4.68-4.82-8.19-5.23-3.51-.41-6.83.62-9.97,3.1-2.41,2.39-3.91,5.24-4.47,8.55l-.22,1.84c-.24,3.53.54,6.74,2.34,9.61,2.48,3.14,5.47,4.91,8.98,5.32,3.51.41,6.57-.65,9.18-3.19,2.77-2.34,4.44-5.26,5.03-8.75l.15-1.32Z"/></g><g id="head_0_Layer0_3_MEMBER_0_FILL"><path class="cls-1" d="M250.95,153.49l2.81-14.88-56.55-9.3-2.55,14.91,56.29,9.27M285.88,142.38l-.71,15.13,56.9,4,.97-15.1-57.17-4.03Z"/></g><g id="head_0_Layer0_3_MEMBER_1_FILL"><path class="cls-1" d="M260.23,197.28c-12.46-1.46-23.29-.15-32.48,3.93-8.61,3.62-13.81,8.52-15.6,14.72-.45.84-.57,1.8-.34,2.9.25.92.68,1.77,1.3,2.55s1.45,1.33,2.48,1.62c14.82,4.05,29.25,3.96,43.26-.26,12.48,7.33,26.49,10.76,42.03,10.26,1.07-.05,2-.39,2.79-1.01s1.4-1.35,1.86-2.18c.47-1.01.68-1.97.6-2.86-.49-6.46-4.5-12.45-12.04-17.96-8.18-6.12-18.41-9.9-30.69-11.34l-1.58-.19-1.58-.19Z"/></g><g id="head_0_Layer0_3_MEMBER_2_FILL"><path class="cls-11" d="M275.03,198.48c3.8-2.05,5.89-4.74,6.28-8.07.37-3.16-1.05-6.26-4.25-9.3-3.24-2.69-7.41-4.34-12.5-4.93s-9.26.07-13.04,1.94c-3.82,2.22-5.91,4.91-6.28,8.07-.39,3.33,1.02,6.44,4.25,9.3,3.2,3.04,7.26,4.85,12.17,5.43,5.09.6,9.54-.22,13.36-2.44Z"/></g><g id="head_0_Layer0_4_FILL"><path class="cls-1" d="M167.81,79.7l-.26-.03c-3.57.11-6.67,1.53-9.3,4.25-2.59,2.36-3.83,5.33-3.71,8.9l.13,85.41c-.04,3.38,1.2,6.46,3.72,9.24,2.56,2.44,5.63,3.6,9.2,3.48l.26.03c3.55.06,6.54-1.19,8.98-3.75s3.69-5.7,3.77-9.43l-.19-84.88c-.09-3.75-1.42-6.84-3.98-9.27-2.39-2.41-5.26-3.73-8.61-3.94M370.16,106.36c-2.88,1.8-4.8,4.51-5.76,8.13l-19.82,82.54c-.78,3.64-.29,6.99,1.49,10.05,1.78,3.05,4.4,4.96,7.87,5.73l.26.03c3.27.92,6.44.49,9.49-1.29,3.27-2.11,5.28-4.81,6.02-8.1l19.88-83.06c.94-3.45.42-6.62-1.55-9.52-1.93-3.25-4.62-5.35-8.07-6.28l-.26-.03c-3.49-.59-6.67.02-9.55,1.82Z"/></g><g id="head_0_Layer0_5_FILL"><path class="cls-1" d="M351.29,119.36c23.31-4.56,35.52-11.58,36.63-21.06,1.09-9.3-9.25-18.25-31.01-26.85-21.41-8.56-48.05-14.26-79.92-17.11-31.54-2.63-58.96-1.66-82.26,2.9-23.15,4.76-35.27,11.79-36.36,21.09-1.11,9.48,9.14,18.42,30.75,26.82,21.74,8.78,48.38,14.48,79.92,17.11,31.87,2.85,59.29,1.88,82.26-2.9Z"/></g><g id="hand_0_Layer0_0_FILL-2"><path class="cls-7" d="M29.2,293.87l4.55-2.17c20.92-6.76,39.16-7.05,54.72-.88-32.83-19.67-52.7-18.7-59.62,2.91l.35.14Z"/><path class="cls-4" d="M107.39,354.41c4.34-1.99,5.53-5.35,3.56-10.09l-22.48-53.52c-15.57-6.17-33.81-5.88-54.72.88l-4.55,2.17-.35-.14c-5.45,2.07-11.17,4.44-17.14,7.11l-1.96.81c-4.57,1.89-6.05,6.62-4.45,14.18,1.98,11.23,5.08,21.71,9.3,31.43,11.67,27.68,41.12,30.67,88.36,8.98l4.41-1.83Z"/></g></svg>