<?xml version="1.0" encoding="UTF-8"?><svg id="Layer_1" xmlns="http://www.w3.org/2000/svg" xmlns:xlink="http://www.w3.org/1999/xlink" viewBox="0 0 500 500"><defs><style>.cls-1{fill:#fc0;}.cls-2{fill:#334e63;}.cls-3{fill:url(#radial-gradient);}.cls-4{fill:#f69;}.cls-5{fill:#5393c5;}.cls-6{fill:#fff;}.cls-7{fill:#477ca6;}.cls-8{fill:#bfd4e5;}</style><radialGradient id="radial-gradient" cx="67.31" cy="345.5" fx="67.31" fy="345.5" r="72.04" gradientTransform="translate(144.84 579.15) scale(1.51 -1)" gradientUnits="userSpaceOnUse"><stop offset="0" stop-color="#000" stop-opacity=".3"/><stop offset="1" stop-color="#000" stop-opacity="0"/></radialGradient></defs><g id="arm_0_Layer0_0_FILL"><path class="cls-7" d="M90.19,298.24c4,2.31,8.2,3.71,12.58,4.2-7.24,7.29-13.84,15.72-19.81,25.3-2.98,4.81-7.48,7.83-13.49,9.05-5.62,1.25-10.98.29-16.1-2.87-5.12-3.16-8.45-7.63-10-13.43-1.16-5.77-.25-11.06,2.73-15.87,8.57-13.63,18.07-25.49,28.5-35.59-.4,3.54-.07,7.2,1,10.99,2.38,7.9,7.24,13.97,14.59,18.22M120.01,246.58c-3.16-1.82-6.33-3.04-9.52-3.66,17.03-8.94,35.84-14.31,56.43-16.09,6.05-.59,11.46,1,16.22,4.77,4.76,3.77,7.45,8.48,8.06,14.14.92,5.84-.47,11.06-4.15,15.67-3.75,4.37-8.57,6.89-14.47,7.56-13.41,1.34-25.84,4.67-37.3,10,.89-4.39.69-9-.6-13.81-2.44-8.14-7.34-14.34-14.68-18.58M116.53,266.92c.26.97.4,1.96.41,2.99.23,2.79-.41,5.48-1.91,8.08-2.03,3.52-4.98,5.8-8.84,6.83-4.02.95-7.86.36-11.53-1.76-2.76-1.59-4.85-3.62-6.29-6.08-.26-.97-.52-1.93-.78-2.9-.61-1.78-.95-3.3-1.03-4.58.14-2.37.83-4.62,2.07-6.76,2.03-3.52,5.13-5.71,9.3-6.57,3.86-1.04,7.63-.49,11.3,1.63,2.3,1.33,4.02,2.93,5.17,4.82.87,1.32,1.58,2.75,2.12,4.28Z"/><path class="cls-2" d="M74.6,269.03c.17-4.18,1.36-8.19,3.57-12.02,4.06-7.04,10.28-11.62,18.64-13.73,4.63-1.17,9.19-1.29,13.68-.37,3.19.61,6.36,1.83,9.52,3.66,7.35,4.24,12.24,10.43,14.68,18.58,1.29,4.82,1.49,9.42.6,13.81-.58,3.13-1.71,6.15-3.39,9.06-4.06,7.04-10.2,11.66-18.41,13.86-3.72.82-7.3,1-10.72.54-4.38-.49-8.57-1.89-12.58-4.2-7.35-4.24-12.21-10.31-14.59-18.22-1.07-3.78-1.41-7.45-1-10.99M116.95,269.91c-.02-1.03-.16-2.03-.41-2.99-.54-1.54-1.25-2.97-2.12-4.28-1.15-1.89-2.88-3.5-5.17-4.82-3.67-2.12-7.44-2.66-11.3-1.63-4.17.86-7.27,3.05-9.3,6.57-1.24,2.14-1.93,4.4-2.07,6.76.08,1.27.43,2.8,1.03,4.58.26.97.52,1.93.78,2.9,1.44,2.46,3.53,4.49,6.29,6.08,3.67,2.12,7.52,2.71,11.53,1.76,3.86-1.04,6.81-3.31,8.84-6.83,1.5-2.6,2.14-5.3,1.91-8.08Z"/></g><g id="arm_0_Layer0_0_FILL-2"><path class="cls-7" d="M385.63,197.18c-4.37-1.52-8.75-2.11-13.14-1.77,5.74-8.52,10.65-18.04,14.72-28.56,2.03-5.28,5.88-9.09,11.55-11.42,5.28-2.28,10.74-2.34,16.35-.2,5.62,2.14,9.73,5.91,12.34,11.32,2.22,5.45,2.32,10.82.29,16.1-5.87,14.99-12.98,28.42-21.33,40.3-.27-3.55-1.28-7.09-3.04-10.6-3.82-7.32-9.73-12.37-17.74-15.16M366.02,253.52c3.45,1.2,6.79,1.8,10.04,1.81-15.05,11.97-32.52,20.77-52.42,26.38-5.84,1.71-11.45,1.16-16.83-1.65-5.38-2.81-8.91-6.94-10.57-12.38-1.99-5.56-1.61-10.95,1.14-16.17,2.86-4.99,7.13-8.37,12.8-10.14,12.92-3.83,24.51-9.43,34.77-16.81-.05,4.48,1,8.97,3.17,13.46,3.92,7.54,9.89,12.71,17.9,15.5M365.62,232.89c-.44-.9-.76-1.85-.97-2.86-.75-2.69-.63-5.46.36-8.3,1.34-3.84,3.81-6.63,7.41-8.37,3.77-1.68,7.65-1.83,11.66-.43,3,1.05,5.44,2.64,7.31,4.79.44.9.87,1.8,1.31,2.7.93,1.63,1.55,3.07,1.87,4.3.3,2.35.05,4.7-.76,7.03-1.34,3.84-3.97,6.57-7.91,8.2-3.6,1.74-7.4,1.91-11.41.52-2.5-.87-4.5-2.13-5.99-3.77-1.1-1.13-2.06-2.4-2.88-3.81Z"/><path class="cls-2" d="M406.42,222.95c.62,4.14.2,8.3-1.26,12.48-2.67,7.68-7.92,13.34-15.74,16.98-4.33,2.01-8.78,2.99-13.37,2.92-3.24,0-6.59-.61-10.04-1.81-8.01-2.79-13.98-7.96-17.9-15.5-2.17-4.49-3.23-8.97-3.17-13.46-.01-3.18.53-6.36,1.64-9.54,2.67-7.68,7.84-13.37,15.49-17.07,3.5-1.5,6.98-2.35,10.43-2.54,4.39-.34,8.77.25,13.14,1.77,8.01,2.79,13.93,7.84,17.74,15.16,1.76,3.52,2.78,7.05,3.04,10.6M364.65,230.02c.21,1.01.53,1.96.97,2.86.82,1.41,1.78,2.68,2.88,3.81,1.49,1.64,3.48,2.9,5.99,3.77,4.01,1.39,7.81,1.22,11.41-.52,3.93-1.62,6.57-4.36,7.91-8.2.81-2.34,1.07-4.68.76-7.03-.32-1.23-.94-2.67-1.87-4.3-.44-.9-.87-1.8-1.31-2.7-1.87-2.15-4.31-3.75-7.31-4.79-4.01-1.39-7.89-1.25-11.66.43-3.6,1.74-6.07,4.53-7.41,8.37-.99,2.84-1.11,5.6-.36,8.3Z"/></g><g id="leg_0_Layer0_0_FILL"><path class="cls-2" d="M215.01,484.13l-18.49-40-29.08-10,7.5-21.81c1.44-4.18,1.17-8.29-.81-12.33-1.97-4.04-5.05-6.78-9.23-8.22l-.25-.09c-4.18-1.44-8.29-1.17-12.33.81-2.02.99-3.77,2.26-5.23,3.81-1.3,1.61-2.3,3.42-2.99,5.42l-24.52,66.42,89.75,30.86,5.67-14.87M161.89,400.54c2.01.69,3.5,2.05,4.49,4.07.99,2.02,1.14,4.04.45,6.04s-2.05,3.5-4.07,4.49c-2.02.99-4.04,1.14-6.04.45-2.01-.69-3.5-2.05-4.49-4.07s-1.14-4.04-.45-6.04,2.05-3.5,4.07-4.49c2.02-.99,4.04-1.14,6.04-.45Z"/><path class="cls-7" d="M166.38,404.61c-.99-2.02-2.48-3.38-4.49-4.07s-4.02-.54-6.04.45c-2.02.99-3.38,2.48-4.07,4.49s-.54,4.02.45,6.04,2.48,3.38,4.49,4.07c2.01.69,4.02.54,6.04-.45,2.02-.99,3.38-2.48,4.07-4.49s.54-4.02-.45-6.04M224.26,374.05c2.76-8.02,1.94-15.97-2.46-23.83-4.23-7.81-10.86-13.27-19.88-16.37-8.86-3.05-17.44-2.82-25.75.68-8.31,3.5-13.84,9.26-16.6,17.28l-12.49,44.48c1.47-1.55,3.21-2.82,5.23-3.81,4.04-1.97,8.15-2.24,12.33-.81l.25.09c4.18,1.44,7.25,4.18,9.23,8.22,1.97,4.04,2.24,8.15.81,12.33l-7.5,21.81,29.08,10,.25.09,27.49-70.17Z"/></g><g id="legBend_0_Layer0_0_FILL"><path class="cls-2" d="M302.03,369.37l-.25-.1c-3.93-2.07-8.01-2.57-12.23-1.51-2.11.53-3.98,1.41-5.61,2.64-1.4,1.15-2.54,2.58-3.4,4.28l-9.62,16.4-24.2,35.95,81.64,45.86,7.87-11.97-10.29-38.85-26.46-14.56,9.9-17.82c1.79-3.56,1.95-7.33.49-11.32-1.3-3.92-3.91-6.92-7.85-8.99M301.5,386.55c-.86,1.7-2.27,2.85-4.21,3.45-2.05.38-4.03.11-5.95-.82-1.91-.93-3.27-2.32-4.06-4.16-.73-1.99-.67-3.84.2-5.55.86-1.7,2.43-2.79,4.71-3.25,2.11-.53,4.12-.33,6.04.6,1.91.93,3.24,2.39,3.97,4.38.4,1.86.17,3.65-.69,5.35Z"/><path class="cls-7" d="M297.29,390c1.95-.59,3.35-1.74,4.21-3.45.86-1.7,1.09-3.49.69-5.35-.73-1.99-2.05-3.46-3.97-4.38-1.91-.93-3.93-1.13-6.04-.6-2.27.46-3.84,1.55-4.71,3.25-.86,1.7-.93,3.55-.2,5.55.79,1.85,2.14,3.23,4.06,4.16,1.91.93,3.9,1.2,5.95.82M290,310.4c-8.42-1.29-15.92.35-22.47,4.92-6.62,4.71-10.34,11-11.17,18.86-.77,7.71,1.62,14.88,7.17,21.51,5.07,5.93,8.14,12.09,9.22,18.48l-.09.22c.76,5.54.17,11.1-1.76,16.7l9.62-16.4c.86-1.7,2-3.13,3.4-4.28,1.63-1.23,3.5-2.11,5.61-2.64,4.22-1.06,8.3-.55,12.23,1.51l.25.1c3.93,2.07,6.55,5.06,7.85,8.99,1.46,3.99,1.3,7.76-.49,11.32l-9.9,17.82,26.46,14.56c4.63-10.27,7.71-20.22,9.24-29.85,3.05-24.54-4.91-47.89-23.89-70.06-5.55-6.63-12.65-10.55-21.3-11.75Z"/></g><g id="body_0_Layer0_0_FILL"><path class="cls-2" d="M170.48,260.16c6.89-6.72,10.34-14.85,10.34-24.39s-3.45-17.67-10.34-24.39c-6.72-6.72-14.85-10.07-24.39-10.07s-17.59,3.36-24.13,10.07c-6.72,6.72-10.07,14.85-10.07,24.39s3.36,17.67,10.07,24.39c6.54,6.72,14.58,10.07,24.13,10.07s17.67-3.36,24.39-10.07M351.02,260.16c6.72-6.72,10.07-14.85,10.07-24.39s-3.36-17.67-10.07-24.39c-6.72-6.72-14.85-10.07-24.39-10.07s-17.59,3.36-24.13,10.07c-6.89,6.72-10.34,14.85-10.34,24.39s3.45,17.67,10.34,24.39c6.54,6.72,14.58,10.07,24.13,10.07s17.67-3.36,24.39-10.07Z"/></g><g id="body_0_Layer0_1_FILL"><path class="cls-5" d="M307.54,381.58c4.95-6.89,7.6-16.17,7.95-27.84h-158.54c.35,11.67,3,20.94,7.95,27.84h142.63Z"/><path class="cls-2" d="M280.23,327.24c4.77-7.78,7.16-16.61,7.16-26.51,0-14.14-4.95-26.25-14.85-36.32-10.07-10.07-22.18-15.11-36.32-15.11s-26.25,5.04-36.32,15.11c-10.07,10.07-15.11,22.18-15.11,36.32,0,9.9,2.47,18.73,7.42,26.51h-35.26v26.51h158.54v-26.51h-35.26M263,292.51l-8.75,27.84c-.18.71-.62,1.33-1.33,1.86-.71.53-1.5.8-2.39.8h-27.84c-.71,0-1.41-.27-2.12-.8-.88-.53-1.41-1.15-1.59-1.86l-8.75-27.84c-.18-.88-.18-1.77,0-2.65.35-.71.88-1.41,1.59-2.12l22.8-16.7c.53-.53,1.24-.8,2.12-.8.71,0,1.5.27,2.39.8l22.53,16.7c.53.71.97,1.41,1.33,2.12.18.88.18,1.77,0,2.65Z"/><path class="cls-4" d="M254.25,320.34l8.75-27.84c.18-.88.18-1.77,0-2.65-.35-.71-.8-1.41-1.33-2.12l-22.53-16.7c-.88-.53-1.68-.8-2.39-.8-.88,0-1.59.27-2.12.8l-22.8,16.7c-.71.71-1.24,1.41-1.59,2.12-.18.88-.18,1.77,0,2.65l8.75,27.84c.18.71.71,1.33,1.59,1.86.71.53,1.41.8,2.12.8h27.84c.88,0,1.68-.27,2.39-.8.71-.53,1.15-1.15,1.33-1.86Z"/><path class="cls-7" d="M332.73,254.33c4.42-17.67.44-26.95-11.93-27.84h-28.37v-1.33c.18-.88.27-1.77.27-2.65,0-13.26-5.39-24.66-16.17-34.2-11.13-9.01-24.48-13.52-40.03-13.52s-28.9,4.51-40.03,13.52c-10.78,9.54-16.17,20.94-16.17,34.2,0,.88.09,1.77.27,2.65,0,.53.09.97.27,1.33h-27.31c-12.9-.71-17.5,8.57-13.79,27.84l17.23,72.91h35.26c-4.95-7.78-7.42-16.61-7.42-26.51,0-14.14,5.04-26.25,15.11-36.32,10.07-10.07,22.18-15.11,36.32-15.11s26.25,5.04,36.32,15.11c9.9,10.07,14.85,22.18,14.85,36.32,0,9.9-2.39,18.73-7.16,26.51h35.26l17.23-72.91Z"/></g><g id="hand_0_Layer0_0_FILL"><path class="cls-8" d="M430.18,125.49c-.48.13-.67-.08-.56-.63-.04-.64.04-1.3.24-2l9.28-16.07c.27-.46.85-.94,1.75-1.44.39.02.82.17,1.28.43,8.48,5.1,14.02,12.48,16.61,22.14l.23.13c2.72,10.14,1.58,19.89-3.42,29.25-5.24,9.43-12.77,15.58-22.61,18.48l-1.09.29c.9-1.75,1.56-3.61,2-5.58,1.8-6.71,1.04-13.17-2.28-19.38,1.73-1.23,3.13-2.77,4.2-4.62,1.73-3.7,2.27-7.47,1.63-11.3-.15-.09-.34-.3-.56-.63-.88-3.77-3.12-6.8-6.7-9.07M379.86,164.4c-1.11-1.01-2.23-2.07-3.37-3.17-7.42-6.94-11.29-15.8-11.59-26.59,0-10.61,3.56-19.78,10.68-27.51l.27-.46c7.16-7.09,15.66-10.86,25.5-11.3.64-.04,1.18.07,1.64.34.22.33.27.77.16,1.32l.87,19.17c.13.48.11.88-.07,1.18-.66.44-1.23.72-1.71.85-3.82.25-7.15,1.79-10.02,4.62l-.27.46c-2.71,2.93-4.03,6.45-3.96,10.57.1,3.26.92,6.08,2.46,8.46-4.64,4.02-7.83,9.02-9.57,14.99-.57,2.35-.91,4.71-1.02,7.07Z"/><path class="cls-5" d="M421.35,187.44c-6.33,3.9-13.21,5.03-20.63,3.39-7.18-1.7-12.83-5.88-16.95-12.54-2.53-4.51-3.83-9.14-3.92-13.89.11-2.36.44-4.71,1.02-7.07,1.74-5.97,4.93-10.96,9.57-14.99,1.01-.75,2.04-1.48,3.1-2.19,6.48-3.81,13.39-4.82,20.73-3.03,7.25,1.94,12.82,6.07,16.72,12.41.29.5.49,1.02.62,1.58,3.32,6.21,4.08,12.67,2.28,19.38-.43,1.97-1.1,3.83-2,5.58-2.09,4.73-5.6,8.52-10.54,11.36Z"/></g><g id="hand_0_Layer0_0_FILL-2"><path class="cls-8" d="M66.86,374.46c.4-.3.65-.18.75.37.28.57.45,1.22.53,1.95l-2.58,18.38c-.07.53-.43,1.19-1.08,1.99-.37.13-.82.15-1.35.08-9.78-1.55-17.67-6.32-23.69-14.3l-.26-.04c-6.32-8.38-8.92-17.85-7.79-28.4,1.32-10.7,6-19.24,14.03-25.6l.9-.68c-.18,1.96-.1,3.93.24,5.92.85,6.9,3.98,12.6,9.38,17.11-1.14,1.79-1.86,3.74-2.16,5.85-.21,4.07.69,7.77,2.73,11.09.18.02.43.15.75.37,2.23,3.17,5.44,5.14,9.61,5.9M98.93,319.53c1.41.52,2.85,1.08,4.32,1.68,9.48,3.65,16.38,10.42,20.71,20.31,3.97,9.84,4.11,19.67.41,29.51l-.07.53c-3.98,9.26-10.45,15.93-19.41,20.03-.57.28-1.12.38-1.65.3-.33-.22-.54-.61-.64-1.16l-7.99-17.45c-.3-.4-.43-.77-.38-1.12.45-.65.87-1.13,1.27-1.43,3.45-1.66,5.96-4.34,7.55-8.04l.07-.53c1.42-3.73,1.32-7.49-.29-11.28-1.32-2.99-3.13-5.3-5.45-6.92,2.79-5.47,3.88-11.29,3.26-17.48-.35-2.4-.92-4.71-1.7-6.93Z"/><path class="cls-5" d="M51.83,313.72c4.41-5.98,10.36-9.61,17.86-10.88,7.3-1.12,14.1.64,20.41,5.27,4.03,3.23,6.98,7.04,8.84,11.41.79,2.23,1.35,4.54,1.7,6.93.62,6.19-.47,12.01-3.26,17.48-.66,1.07-1.34,2.14-2.05,3.19-4.58,5.96-10.61,9.49-18.08,10.58-7.45.92-14.16-.83-20.15-5.24-.45-.35-.84-.76-1.17-1.23-5.4-4.51-8.53-10.21-9.38-17.11-.34-1.99-.42-3.96-.24-5.92.16-5.17,2-10,5.51-14.49Z"/></g><g id="shadow_0_Layer0_0_FILL"><path class="cls-3" d="M321.83,183.01c-20.78-13.79-45.96-20.68-75.53-20.68s-55.02,6.89-76.33,20.68c-20.78,14.14-31.17,31.02-31.17,50.64s10.39,36.32,31.17,50.11c21.31,14.14,46.76,21.21,76.33,21.21s54.75-7.07,75.53-21.21c21.31-13.79,31.97-30.49,31.97-50.11s-10.66-36.5-31.97-50.64Z"/></g><g id="headFocus_0_Layer0_0_FILL"><path class="cls-8" d="M304.11,149.17c15.89-20.1,22.28-42.87,19.18-68.31-3.1-25.44-14.79-46.09-35.06-61.96C267.95,3.04,245.1-3.34,219.66-.24c-25.44,3.1-46.09,14.79-61.96,35.06-15.87,20.27-22.25,43.13-19.15,68.57,3.1,25.44,14.78,46,35.03,61.7,20.3,16.04,43.16,22.51,68.6,19.41,25.44-3.1,46.08-14.88,61.93-35.33M283.29,85.75c1.75,14.39-1.84,27.29-10.77,38.7-9.09,11.61-20.83,18.3-35.21,20.05s-27.3-1.92-38.74-11.03c-11.59-8.91-18.27-20.56-20.02-34.95s1.92-27.3,11.03-38.74c8.91-11.59,20.56-18.27,34.95-20.02s27.39,1.91,39,11c11.42,8.93,18,20.6,19.76,34.98Z"/><path class="cls-6" d="M272.52,124.45c8.93-11.42,12.53-24.32,10.77-38.7s-8.34-26.05-19.76-34.98c-11.61-9.09-24.61-12.76-39-11s-26.04,8.43-34.95,20.02c-9.11,11.44-12.79,24.35-11.03,38.74s8.43,26.04,20.02,34.95c11.44,9.11,24.35,12.79,38.74,11.03s26.12-8.44,35.21-20.05Z"/></g><g id="headFocus_0_Layer0_1_FILL"><path class="cls-7" d="M142.54,44.15c-3.1,2.34-4.94,5.5-5.52,9.49l-6.32,44.57c-.58,3.99.32,7.71,2.7,11.16,2.69,3.06,6.02,4.87,10.01,5.46l.26-.03c3.99.58,7.63-.22,10.92-2.4,3.23-2.71,5.14-6.06,5.72-10.05l6.05-44.54c.58-3.99-.39-7.61-2.93-10.86-2.36-3.27-5.44-5.21-9.26-5.82l-.26.03c-3.99-.58-7.78.42-11.39,2.99Z"/></g><g id="headFocus_0_Layer0_2_FILL"><path class="cls-7" d="M313.61,32.11c-1.52-3.73-4.07-6.36-7.64-7.88-4.12-1.63-8.04-1.69-11.77-.17l-.26.03c-3.73,1.52-6.35,4.16-7.85,7.9-1.68,3.77-1.75,7.51-.23,11.25l16.84,41.75c1.52,3.73,4.18,6.52,7.97,8.38,3.72,1.33,7.45,1.23,11.18-.3l.26-.03c3.56-1.5,6.27-4.06,8.15-7.67,1.48-3.92,1.46-7.75-.06-11.48l-16.58-41.78Z"/></g><g id="headFocus_0_Layer0_3_FILL"><path class="cls-5" d="M109.5,152.07c-7.24,9.25-10.15,19.67-8.74,31.25,1.41,11.58,6.73,20.9,15.96,27.97,9.45,7.39,19.87,10.4,31.28,9.01s21.07-6.84,28.46-16.29c7.09-9.05,9.92-19.37,8.51-30.95s-6.66-21-15.73-28.26c-9.45-7.39-19.96-10.39-31.54-8.97-11.4,1.39-20.8,6.81-28.2,16.26M127.41,198.23c-5.51-4.31-8.7-9.98-9.55-17s.89-13.11,5.19-18.79c4.31-5.51,9.89-8.68,16.73-9.52,7.19-.88,13.55.84,19.06,5.15,5.53,4.49,8.72,10.15,9.55,17,.86,7.02-.87,13.28-5.19,18.79-4.29,5.69-10.03,8.97-17.23,9.85-6.84.83-13.03-.99-18.56-5.48M332.44,112.07c-11.4,1.39-20.8,6.81-28.2,16.26-7.24,9.25-10.15,19.67-8.74,31.25,1.41,11.58,6.73,20.9,15.96,27.97,9.45,7.39,19.87,10.4,31.28,9.01s21.07-6.84,28.46-16.29c7.09-9.05,9.92-19.37,8.51-30.95-1.41-11.58-6.66-21-15.73-28.26-9.45-7.39-19.96-10.39-31.54-8.97M340.72,179.96c-6.84.83-13.03-.99-18.56-5.48-5.69-4.29-8.96-9.95-9.81-16.96-.83-6.84.98-13.12,5.45-18.83,4.31-5.51,9.89-8.68,16.73-9.52,7.02-.86,13.37.86,19.06,5.15,5.53,4.49,8.72,10.15,9.55,17,.86,7.02-.87,13.28-5.19,18.79-4.47,5.71-10.21,8.99-17.23,9.85Z"/><path class="cls-7" d="M117.86,181.23c.86,7.02,4.04,12.68,9.55,17,5.53,4.49,11.72,6.32,18.56,5.48,7.19-.88,12.94-4.16,17.23-9.85,4.31-5.51,6.04-11.78,5.19-18.79-.83-6.84-4.02-12.51-9.55-17-5.51-4.31-11.86-6.03-19.06-5.15s-12.42,4.01-16.73,9.52c-4.29,5.69-6.02,11.95-5.19,18.79M322.15,174.48c5.53,4.49,11.72,6.32,18.56,5.48s12.76-4.14,17.23-9.85c4.31-5.51,6.04-11.78,5.19-18.79-.83-6.84-4.02-12.51-9.55-17-5.69-4.29-12.04-6.01-19.06-5.15-6.84.83-12.42,4.01-16.73,9.52-4.47,5.71-6.28,11.98-5.45,18.83.86,7.02,4.13,12.67,9.81,16.96Z"/></g><g id="headFocus_0_Layer0_4_FILL"><path class="cls-2" d="M155.64,247.94l42.11-5.13c-4.37-34.37-23.4-54.66-57.1-60.87l14.99,66.01M313.01,228.75c18.47-4.75,27.96-16.05,28.45-33.92l-.88-46.63c-29.77,20.19-43.17,47.55-40.2,82.09l12.63-1.54Z"/><path class="cls-5" d="M340.58,148.2l-1.64-90.07-220.27,26.86,21.97,96.94c33.7,6.22,52.73,26.51,57.1,60.87l102.63-12.52c-2.97-34.54,10.43-61.9,40.2-82.09Z"/></g><g id="headFocus_0_Layer0_5_FILL"><path class="cls-7" d="M272.03,166.44c7.24-9.25,10.15-19.67,8.74-31.25-1.43-11.75-6.77-21.16-16-28.23-9.25-7.24-19.67-10.15-31.25-8.74-11.75,1.43-21.16,6.77-28.23,16-7.26,9.08-10.18,19.49-8.74,31.25s6.74,20.99,16,28.23c9.08,7.26,19.49,10.18,31.25,8.74,11.58-1.41,20.99-6.74,28.23-16M266.83,136.9c.94,7.72-1.06,14.64-6.01,20.76-4.75,6.28-10.99,9.89-18.71,10.83s-14.99-1.02-21.29-5.95c-6.1-4.78-9.62-11.02-10.56-18.74s.93-14.98,5.69-21.26c4.97-5.95,11.41-9.4,19.3-10.37,7.72-.94,14.62.89,20.7,5.49,6.3,4.93,9.93,11.34,10.89,19.24Z"/><path class="cls-1" d="M260.81,157.66c4.95-6.12,6.96-13.04,6.01-20.76-.96-7.89-4.59-14.31-10.89-19.24-6.08-4.6-12.98-6.43-20.7-5.49-7.89.96-14.33,4.42-19.3,10.37-4.75,6.28-6.65,13.36-5.69,21.26s4.46,13.97,10.56,18.74c6.3,4.93,13.4,6.91,21.29,5.95s13.96-4.55,18.71-10.83M254.98,138.34c.39,3.16-.43,5.93-2.46,8.31-1.65,2.52-4.06,3.97-7.21,4.35s-6.02-.42-8.58-2.43c-2.36-1.85-3.74-4.35-4.12-7.51s.34-6.01,2.16-8.54c2.02-2.38,4.62-3.77,7.77-4.15,3.16-.39,5.83.36,8.02,2.23,2.56,2,4.03,4.58,4.42,7.74Z"/><path class="cls-6" d="M252.53,146.65c2.02-2.38,2.84-5.15,2.46-8.31-.39-3.16-1.86-5.74-4.42-7.74-2.19-1.87-4.86-2.61-8.02-2.23-3.16.39-5.75,1.77-7.77,4.15-1.83,2.54-2.55,5.39-2.16,8.54s1.76,5.66,4.12,7.51c2.56,2,5.42,2.81,8.58,2.43s5.56-1.84,7.21-4.35Z"/></g><g id="headFocus_0_Layer0_6_FILL"><path class="cls-7" d="M320.97,142.85c2.79-3.37,3.93-7.16,3.42-11.37-.51-4.21-2.54-7.7-6.08-10.48-3.35-2.62-7.12-3.67-11.34-3.16-4.21.51-7.71,2.45-10.51,5.82-2.6,3.52-3.64,7.39-3.13,11.6.51,4.21,2.44,7.63,5.79,10.24,3.52,2.6,7.39,3.64,11.6,3.13,4.21-.51,7.63-2.44,10.24-5.79Z"/></g><g id="headFocus_0_Layer0_7_FILL"><path class="cls-7" d="M180.44,159.98c2.79-3.37,3.93-7.16,3.42-11.37s-2.54-7.7-6.08-10.48c-3.35-2.62-7.04-3.68-11.07-3.19-4.21.51-7.71,2.45-10.51,5.82-2.6,3.52-3.64,7.39-3.13,11.6s2.44,7.63,5.79,10.24c3.52,2.6,7.39,3.64,11.6,3.13,4.04-.49,7.36-2.41,9.98-5.76Z"/></g><g id="headFocus_0_Layer0_8_FILL"><path class="cls-5" d="M288.4,92.6c-5.21-3.28-11.23-4.51-18.07-3.67l-72.11,8.79c-6.84.83-12.48,3.48-16.93,7.94-4.24,4.61-6.03,9.73-5.34,15.34s3.63,10.06,8.84,13.34c5.4,3.44,11.53,4.74,18.37,3.9l72.11-8.79c6.84-.83,12.39-3.56,16.63-8.17,4.44-4.46,6.32-9.5,5.64-15.11-.68-5.61-3.73-10.14-9.13-13.58Z"/></g><g id="headFocus_0_Layer0_9_FILL"><path class="cls-2" d="M252.15,204.92c-.85-1.14-2.09-1.79-3.71-1.95l-31.59-4.96c-1.64-.33-3.21-.05-4.7.84-1.12,1.03-1.75,2.44-1.89,4.24-.31,1.82-.03,3.39.84,4.7,1.05,1.3,2.39,2.11,4.04,2.45l31.59,4.96c1.62.16,3.08-.29,4.38-1.34,1.14-.85,1.87-2.19,2.18-4.01.14-1.8-.24-3.44-1.14-4.94Z"/></g></svg>