<?xml version="1.0" encoding="UTF-8"?><svg id="Layer_1" xmlns="http://www.w3.org/2000/svg" xmlns:xlink="http://www.w3.org/1999/xlink" viewBox="0 0 500 500"><defs><style>.cls-1{fill:#3c3e41;}.cls-2{fill:#71a2be;}.cls-3{fill:url(#radial-gradient);}.cls-4{fill:#25a863;}.cls-5{fill:#bf7958;}.cls-6{fill:#3dbf7b;}.cls-7{fill:#eea160;}.cls-8{fill:#a8603f;}.cls-9{fill:#fff;}.cls-10{fill:#454a51;}.cls-11{fill:#955435;}.cls-12{fill:#676ac6;}.cls-13{fill:#bfd4e5;}</style><radialGradient id="radial-gradient" cx="-179.47" cy="581.11" fx="-179.47" fy="581.11" r="71.42" gradientTransform="translate(529.89 840.1) scale(1.51 -1)" gradientUnits="userSpaceOnUse"><stop offset="0" stop-color="#000" stop-opacity=".3"/><stop offset="1" stop-color="#000" stop-opacity="0"/></radialGradient></defs><g id="back_FL_FL_FL_FL_FL_FL_FL_FL_FL_FL_FL_FL_FL_FL_FL_FL_FL_FL_FL"><g id="Symbol_1_0_Layer0_0_MEMBER_0_FILL"><path class="cls-10" d="M164.48,165.69l-19.45-1.05c-2.1-.18-4.03.53-5.78,2.1-1.75,1.58-2.72,3.5-2.89,5.78-1.23,24.71-11.04,46.43-29.44,65.18-1.58,1.23-2.37,2.98-2.37,5.26-.18,2.45.44,4.47,1.84,6.04v.26c.18-.18.35-.35.53-.53,27.16-23.65,45.38-49.67,54.67-78.06.53-1.75,1.49-3.42,2.89-4.99Z"/><path class="cls-1" d="M219.42,168.84l-54.93-3.15c-1.4,1.58-2.37,3.24-2.89,4.99-9.29,28.39-27.51,54.4-54.67,78.06-.18.18-.35.35-.53.53,1.58,1.58,3.42,2.54,5.52,2.89,57.82,6.13,96.19-17.78,115.12-71.75.53-1.93.61-3.68.26-5.26-.53-1.75-1.49-3.15-2.89-4.21-1.58-1.4-3.24-2.1-4.99-2.1Z"/></g><g id="Symbol_1_0_Layer0_0_MEMBER_1_FILL"><path class="cls-1" d="M340.05,170.68c-.53-1.75-1.49-3.42-2.89-4.99l-54.93,3.15c-1.75,0-3.42.7-4.99,2.1-1.4,1.05-2.37,2.45-2.89,4.21-.35,1.58-.26,3.33.26,5.26,18.92,53.97,57.3,77.88,115.12,71.75,2.1-.35,3.94-1.31,5.52-2.89l-.53-.53c-27.16-23.65-45.38-49.67-54.67-78.06Z"/><path class="cls-10" d="M365.28,172.52c-.18-2.28-1.14-4.21-2.89-5.78-1.75-1.58-3.68-2.28-5.78-2.1l-19.45,1.05c1.4,1.58,2.37,3.24,2.89,4.99,9.29,28.39,27.51,54.4,54.67,78.06l.53.53v-.26c1.4-1.58,2.01-3.59,1.84-6.04,0-2.28-.79-4.03-2.37-5.26-18.4-18.75-28.21-40.47-29.44-65.18Z"/></g></g><g id="arm_0_Layer0_0_FILL"><path class="cls-5" d="M217.25,358.32c7.19,10.41,12.88,18.34,17.1,23.79s3.9,11.09-.93,16.91c-4.71,5.45-10.72,8.49-18.03,9.11-7.31.62-13.69-1.3-19.14-5.76-12.02-10.04-21.8-21.43-29.36-34.2l44.6-20.44c1.73,3.96,3.65,7.5,5.76,10.59Z"/><path class="cls-6" d="M202.2,309.45c.99,7.19,2.17,13.81,3.53,19.88l-48.13,19.51c-2.85-7.31-5.14-15.05-6.88-23.23-3.47-16.35-4.58-34.32-3.34-53.89.5-7.43,3.47-13.63,8.92-18.58,5.58-5.08,11.96-7.37,19.14-6.88,7.31-.12,13.44,2.54,18.4,7.99,4.83,5.33,6.94,11.65,6.32,18.96-.74,13.13-.06,25.21,2.04,36.24Z"/><path class="cls-4" d="M166.89,368.17l-5.58,2.23-10.59-18.77,6.88-2.79,48.13-19.51,4.65-2.04,7.8,17.47-6.69,2.97-44.6,20.44Z"/></g><g id="arm_0_Layer0_0_FILL-2"><path class="cls-5" d="M294.91,358.32c-7.19,10.41-12.88,18.34-17.1,23.79s-3.9,11.09.93,16.91c4.71,5.45,10.72,8.49,18.03,9.11,7.31.62,13.69-1.3,19.14-5.76,12.02-10.04,21.8-21.43,29.36-34.2l-44.6-20.44c-1.73,3.96-3.65,7.5-5.76,10.59Z"/><path class="cls-6" d="M309.96,309.45c-.99,7.19-2.17,13.81-3.53,19.88l48.13,19.51c2.85-7.31,5.14-15.05,6.88-23.23,3.47-16.35,4.58-34.32,3.34-53.89-.5-7.43-3.47-13.63-8.92-18.58-5.58-5.08-11.96-7.37-19.14-6.88-7.31-.12-13.44,2.54-18.4,7.99-4.83,5.33-6.94,11.65-6.32,18.96.74,13.13.06,25.21-2.04,36.24Z"/><path class="cls-4" d="M345.27,368.17l5.58,2.23,10.59-18.77-6.88-2.79-48.13-19.51-4.65-2.04-7.8,17.47,6.69,2.97,44.6,20.44Z"/></g><g id="leg_0_Layer0_0_FILL"><path class="cls-9" d="M356.61,500l.53-15.77h-78.58v15.77h78.06Z"/><path class="cls-13" d="M357.14,484.23c-17-4.73-27.07-15.24-30.22-31.54h-48.36v31.54h78.58Z"/><path class="cls-5" d="M326.91,452.69h.26l.79-26.28h-49.41v26.28h48.36Z"/><path class="cls-12" d="M330.33,378.05c0-8.41-3.33-15.59-9.99-21.55-6.48-5.96-14.46-8.94-23.92-8.94s-17.26,2.98-23.92,8.94c-6.66,5.96-9.99,13.14-9.99,21.55,10.34,8.41,15.68,24.53,16.03,48.36h49.41l2.37-48.36Z"/></g><g id="leg_0_Layer0_0_FILL-2"><path class="cls-9" d="M157.91,500l-.53-15.77h78.58v15.77h-78.06Z"/><path class="cls-13" d="M157.39,484.23c17-4.73,27.07-15.24,30.22-31.54h48.36v31.54h-78.58Z"/><path class="cls-5" d="M187.61,452.69h-.26l-.79-26.28h49.41v26.28h-48.36Z"/><path class="cls-12" d="M184.2,378.05c0-8.41,3.33-15.59,9.99-21.55,6.48-5.96,14.46-8.94,23.92-8.94s17.26,2.98,23.92,8.94c6.66,5.96,9.99,13.14,9.99,21.55-10.34,8.41-15.68,24.53-16.03,48.36h-49.41l-2.37-48.36Z"/></g><g id="body_0_Layer0_0_FILL"><path class="cls-12" d="M184.99,381.99c-.18,7.53.88,15.51,3.15,23.92h132.99c2.28-8.41,3.33-16.38,3.15-23.92h-139.3Z"/><path class="cls-4" d="M184.2,355.97h15.51c2.63-14.89-5.34-28.91-23.92-42.05l1.05,4.21c3.68,11.74,6.13,24.36,7.36,37.85M332.43,318.13l1.05-4.21c-18.57,13.14-26.46,27.16-23.65,42.05h15.51c1.23-13.49,3.59-26.11,7.1-37.85M306.94,316.02c0-2.98-4.99-5.61-14.98-7.88-10.34-1.75-22.78-2.63-37.32-2.63-14.54,0-26.98.88-37.32,2.63-9.99,2.28-14.98,4.91-14.98,7.88s4.99,5.34,14.98,7.1c10.34,2.28,22.78,3.42,37.32,3.42s26.98-1.14,37.32-3.42c9.99-1.75,14.98-4.12,14.98-7.1Z"/><path class="cls-1" d="M331.38,355.97h-153.23l3.94,26.02h145.34l3.94-26.02Z"/><path class="cls-6" d="M350.56,280.54c3.5-17.7-.18-26.9-11.04-27.6h-167.16c-12.79-.7-17.35,8.5-13.67,27.6,7.71,11.04,13.75,23.57,18.13,37.58l-1.05-4.21c18.57,13.14,26.55,27.16,23.92,42.05h110.12c-2.8-14.89,5.08-28.91,23.65-42.05l-1.05,4.21c4.38-14.02,10.43-26.55,18.13-37.58M291.95,308.14c9.99,2.28,14.98,4.91,14.98,7.88s-4.99,5.34-14.98,7.1c-10.34,2.28-22.78,3.42-37.32,3.42s-26.98-1.14-37.32-3.42c-9.99-1.75-14.98-4.12-14.98-7.1s4.99-5.61,14.98-7.88c10.34-1.75,22.78-2.63,37.32-2.63,14.54,0,26.98.88,37.32,2.63Z"/></g><g id="body_0_Layer0_1_FILL"><path class="cls-9" d="M310.09,252.16c-1.05,11.21-6.31,20.85-15.77,28.91-11.04,9.29-24.27,13.93-39.69,13.93-15.42,0-28.65-4.64-39.69-13.93-9.46-7.88-14.63-17.35-15.51-28.39-1.93,4.38-2.89,8.94-2.89,13.67,0,.88.09,1.75.26,2.63.53,10.86,6.04,20.06,16.56,27.6,11.39,8.59,25.14,12.88,41.26,12.88s29.96-4.29,41.53-12.88c10.51-7.53,16.03-16.73,16.56-27.6.18-.88.26-1.75.26-2.63,0-4.91-.96-9.64-2.89-14.19Z"/><path class="cls-5" d="M310.35,247.95c0-12.97-5.34-24.18-16.03-33.64-11.04-8.94-24.27-13.4-39.69-13.4s-28.65,4.47-39.69,13.4c-10.69,9.46-16.03,20.68-16.03,33.64,0,.88.09,1.75.26,2.63,0,.7.09,1.4.26,2.1.88,11.04,6.04,20.5,15.51,28.39,11.04,9.29,24.27,13.93,39.69,13.93,15.42,0,28.65-4.64,39.69-13.93,9.46-8.06,14.72-17.7,15.77-28.91v-1.58c.18-.88.26-1.75.26-2.63Z"/></g><g id="shadow_0_Layer0_0_FILL"><path class="cls-3" d="M334.24,208.79c-20.6-13.67-45.56-20.5-74.88-20.5s-54.54,6.83-75.67,20.5c-20.6,14.02-30.9,30.75-30.9,50.2s10.3,36.01,30.9,49.67c21.13,14.02,46.35,21.03,75.67,21.03s54.28-7.01,74.88-21.03c21.13-13.67,31.69-30.22,31.69-49.67s-10.56-36.18-31.69-50.2Z"/></g><g id="headShock_0_Layer0_0_FILL"><path class="cls-1" d="M374.04,111.65c-4.21-24.95-18.76-45.53-43.64-61.73-27.13-17.76-58.58-25.01-94.35-21.74-35.77,3.26-65.39,16.08-88.86,38.46-21.36,20.42-31.86,43.29-31.48,68.59,4.51,28.27,19.23,51.64,44.14,70.13,27.37,20.38,58.94,28.93,94.71,25.67,35.77-3.26,65.27-17.39,88.5-42.38,21.33-22.71,31.66-48.37,30.98-76.99Z"/><path class="cls-10" d="M373.61,104.03c-2.9-31.76-18.03-57.82-45.4-78.2C300.87,5.8,269.32-2.58,233.55.69c-35.77,3.26-65.29,17.22-88.55,41.86-23.06,24.98-33.14,53.34-30.24,85.1.24,2.62.56,5.14.95,7.57-.37-25.3,10.12-48.16,31.48-68.59,23.47-22.37,53.09-35.19,88.86-38.46,35.77-3.26,67.22,3.98,94.35,21.74,24.88,16.2,39.42,36.78,43.64,61.73-.05-2.46-.19-5-.43-7.61Z"/></g><g id="headShock_0_Layer0_1_MEMBER_0_FILL"><path class="cls-5" d="M111.89,174.36c1.05,11.52,6.05,21,15,28.45,8.98,7.8,19.23,11.18,30.75,10.13,11.34-1.03,20.81-6.21,28.41-15.52,7.45-8.95,10.65-19.18,9.6-30.7s-6.1-21.52-15.05-28.98c-9.14-7.61-19.38-10.9-30.72-9.87-11.52,1.05-20.99,6.14-28.43,15.26-7.45,8.95-10.64,19.36-9.56,31.22M128.64,172.83c-.62-6.81,1.26-13.14,5.66-18.99,4.44-5.33,10.15-8.32,17.13-8.95,7.15-.65,13.31,1.25,18.47,5.7,5.38,4.96,8.38,10.85,9,17.65s-1.26,13.14-5.7,18.47c-4.25,5.49-9.95,8.56-17.11,9.21s-13.14-1.35-18.49-5.97c-5.33-4.44-8.32-10.15-8.95-17.13M343.56,110.2c-11.52,1.05-20.99,6.14-28.43,15.26-7.45,8.95-10.64,19.36-9.56,31.22,1.05,11.52,6.05,21,15,28.45,8.98,7.8,19.23,11.18,30.75,10.13,11.34-1.03,20.81-6.21,28.41-15.52,7.45-8.95,10.65-19.18,9.6-30.7-1.08-11.87-6.1-21.52-15.05-28.98-9.14-7.61-19.38-10.9-30.72-9.87M349.77,178.26c-6.98.64-13.14-1.35-18.49-5.97-5.33-4.44-8.32-10.15-8.95-17.13-.62-6.81,1.26-13.14,5.66-18.99,4.44-5.33,10.15-8.32,17.13-8.95s13.14,1.26,18.47,5.7c5.38,4.96,8.38,10.85,9,17.65.64,6.98-1.26,13.14-5.7,18.47-4.42,5.51-10.13,8.58-17.11,9.21Z"/><path class="cls-8" d="M134.3,153.84c-4.39,5.85-6.28,12.19-5.66,18.99.64,6.98,3.62,12.69,8.95,17.13,5.35,4.61,11.51,6.6,18.49,5.97s12.86-3.72,17.11-9.21c4.44-5.33,6.34-11.49,5.7-18.47s-3.62-12.69-9-17.65c-5.16-4.46-11.31-6.36-18.47-5.7-6.98.64-12.69,3.62-17.13,8.95M331.28,172.29c5.35,4.61,11.51,6.6,18.49,5.97,6.98-.64,12.68-3.71,17.11-9.21,4.44-5.33,6.34-11.49,5.7-18.47-.62-6.81-3.62-12.69-9-17.65-5.33-4.44-11.49-6.34-18.47-5.7s-12.69,3.62-17.13,8.95c-4.39,5.85-6.28,12.19-5.66,18.99.64,6.98,3.62,12.69,8.95,17.13Z"/></g><g id="headShock_0_Layer0_1_MEMBER_1_FILL"><path class="cls-5" d="M351.58,192.34l1.27-119.14-219.07,19.99,22.81,116.95c9.51,25.17,29.3,41.49,59.36,48.95,15.12,3.72,29.64,4.77,43.57,3.15,14.17-.94,28.26-4.6,42.28-10.98,28.39-12.79,44.99-32.43,49.78-58.91Z"/></g><g id="headShock_0_Layer0_1_MEMBER_2_FILL"><path class="cls-11" d="M265.94,193.82c3.44-2.78,5.02-5.74,4.73-8.88-.29-3.14-2.38-5.85-6.28-8.14-3.7-1.95-8.08-2.69-13.14-2.23-4.71.43-8.71,1.94-11.99,4.52-3.25,2.94-4.73,5.97-4.45,9.11s2.29,5.77,6,7.9c3.73,2.3,7.95,3.23,12.66,2.8,5.06-.46,9.22-2.16,12.47-5.1Z"/></g><g id="headShock_0_Layer0_1_MEMBER_2_MEMBER_0_FILL"><path class="cls-1" d="M185.61,178.19c-.06-.7-.12-1.31-.17-1.83-.56-6.11.97-11.53,4.59-16.25,3-3.79,6.81-6.34,11.44-7.64l-30.1,2.75c7.85,5.09,12.6,12.75,14.24,22.98M221.45,186.27c2.12-3.71,2.95-8.19,2.47-13.42-.46-5.06-2.08-9.31-4.86-12.75-2.78-3.44-6-5-9.66-4.66-3.49.32-6.2,2.41-8.14,6.28-2.11,3.89-2.93,8.36-2.47,13.42s2.1,9.49,4.86,12.75c2.6,3.46,5.65,5.03,9.14,4.71,3.66-.33,6.55-2.45,8.66-6.33M317.09,164.35l.17,1.83c-.24-10.36,2.95-18.74,9.58-25.15l-29.84,2.72c4.79.44,9,2.26,12.64,5.45,4.41,4,6.9,9.05,7.45,15.16M278.62,167.86c.48,5.23,2.1,9.49,4.86,12.75,2.6,3.46,5.74,5.02,9.4,4.68,3.49-.32,6.29-2.42,8.4-6.31,2.12-3.71,2.95-8.19,2.47-13.42s-2.08-9.31-4.86-12.75c-2.78-3.44-5.91-5-9.4-4.68-3.66.33-6.46,2.44-8.4,6.31-2.11,3.89-2.93,8.36-2.47,13.42Z"/><path class="cls-9" d="M203.54,152.01c-.7.06-1.39.21-2.07.45-4.63,1.3-8.45,3.85-11.44,7.64-3.62,4.73-5.14,10.15-4.59,16.25.05.52.1,1.13.17,1.83.83,5.2,3.26,9.64,7.29,13.32,4.6,4.15,9.96,5.95,16.06,5.4s10.7-3.26,14.3-8.17c3.79-4.74,5.41-10.17,4.85-16.28s-3.13-11.15-7.71-15.13c-4.43-4.17-9.61-5.99-15.54-5.44-.52.05-.96.09-1.31.12M223.92,172.85c.48,5.23-.35,9.71-2.47,13.42-2.11,3.89-5,6-8.66,6.33s-6.54-1.25-9.14-4.71c-2.76-3.27-4.38-7.52-4.86-12.75s.36-9.53,2.47-13.42c1.93-3.87,4.65-5.97,8.14-6.28,3.66-.33,6.89,1.22,9.66,4.66,2.78,3.44,4.4,7.69,4.86,12.75M297,143.75c-.71-.11-1.42-.13-2.12-.07-.52.05-1.05.1-1.57.14-5.93.54-10.61,3.26-14.04,8.14-3.79,4.74-5.41,10.17-4.85,16.28.56,6.11,3.13,11.15,7.71,15.13,4.25,4.19,9.35,6.01,15.28,5.47,6.28-.57,11.31-3.32,15.08-8.24,3.3-4.35,4.88-9.15,4.75-14.42l-.17-1.83c-.56-6.11-3.04-11.16-7.45-15.16-3.63-3.19-7.85-5-12.64-5.45M283.48,180.61c-2.76-3.27-4.38-7.52-4.86-12.75-.46-5.06.36-9.53,2.47-13.42,1.93-3.87,4.73-5.97,8.4-6.31,3.49-.32,6.62,1.24,9.4,4.68,2.78,3.44,4.4,7.69,4.86,12.75s-.35,9.71-2.47,13.42c-2.11,3.89-4.91,5.99-8.4,6.31-3.66.33-6.8-1.23-9.4-4.68Z"/></g><g id="headShock_0_Layer0_1_MEMBER_2_MEMBER_1_FILL"><path class="cls-8" d="M255,209.86c-5.23.48-9.44,2.62-12.61,6.43-3.16,3.98-4.5,8.5-4.04,13.56s2.62,9.44,6.43,12.61c3.81,3.17,8.33,4.52,13.56,4.04,5.06-.46,9.18-2.6,12.35-6.4,3.35-3.82,4.78-8.35,4.3-13.59-.46-5.06-2.69-9.26-6.69-12.59-3.81-3.17-8.24-4.53-13.3-4.06Z"/></g><g id="headShock_0_Layer0_2_FILL"><path class="cls-1" d="M355.1,118.12l1.22-44.45-2.88.26-.41-4.45-223.52,20.39,7.06,39.74c37.45-4.12,64.54-13.81,81.27-29.06,20.2,20.85,40.53,30.61,61,29.27l6.11-16.92c24.35,6.58,47.74,8.31,70.15,5.21Z"/></g><g id="headShock_0_Layer0_3_FILL"><path class="cls-2" d="M335.22,70.85c-3.14-3.58-6.97-7.02-11.5-10.3-20.86-14.64-48.83-20.35-83.91-17.15-35.07,3.2-61.47,13.79-79.18,31.77-1.32,1-2.36,2.15-3.12,3.45-2.74,2.71-4.93,5.73-6.56,9.04-1.84,2.98-1.79,6.41.15,10.28,21.33-14.97,51.71-24.25,91.15-27.85,39.09-3.57,70.55-.01,94.4,10.65,1.22-3.98.74-7.28-1.43-9.9Z"/></g><g id="headShock_0_Layer0_4_FILL"><path class="cls-1" d="M165.69,162.32c1.84-2.98,2.42-6.29,1.73-9.92l-6.1-29.27-25.91,2.36,6.91,32.36c.67,3.46,2.6,6.27,5.78,8.45,2.98,1.84,6.2,2.34,9.64,1.5l.26-.02c3.46-.67,6.02-2.48,7.68-5.45Z"/></g><g id="headShock_0_Layer0_5_FILL"><path class="cls-1" d="M329.44,137.62c-.01,3.7,1.15,6.84,3.5,9.45,2.35,2.6,5.28,3.92,8.81,3.95l.26-.02c3.54.21,6.61-.87,9.21-3.22,2.74-2.71,4.13-5.83,4.16-9.35l.94-33.08-26.17,2.39-.7,29.89Z"/></g><g id="headShock_0_Layer0_6_FILL"><path class="cls-1" d="M169.12,124.8l1.17,12.83,48.23-12.32-.98-10.73-48.42,10.22M322.41,132.98l-1.17-12.83-49.21-1.32.98,10.73,49.4,3.41Z"/></g><g id="headShock_0_Layer0_7_FILL"><path class="cls-7" d="M358.76,169.78c-1.17,2.57-1.3,5.04-.38,7.42l7.07,19.68c.92,2.38,2.58,4.16,4.97,5.35,2.38,1.01,4.85,1.05,7.4.12l.26-.02c2.38-.92,4.16-2.58,5.35-4.97,1.17-2.57,1.29-5.13.35-7.69l-7.05-19.41c-.92-2.38-2.67-4.16-5.24-5.33-2.55-1-4.93-1.05-7.14-.14l-.26.02c-2.55.94-4.34,2.6-5.35,4.97Z"/></g><g id="headShock_0_Layer0_8_FILL"><path class="cls-7" d="M145.97,189.19c-1.43-2.16-3.48-3.47-6.16-3.92l-.26.02c-2.51-.48-4.93,0-7.26,1.45-2.32,1.62-3.71,3.68-4.19,6.19l-3.16,20.35c-.46,2.68.12,5.18,1.74,7.49,1.6,2.14,3.57,3.46,5.9,3.95l.26-.02c2.68.46,5.1-.03,7.26-1.45,2.32-1.62,3.71-3.68,4.19-6.19l3.4-20.63c.48-2.51-.1-4.92-1.72-7.23Z"/></g></svg>